<svg id="email" xmlns="http://www.w3.org/2000/svg" xmlns:xlink="http://www.w3.org/1999/xlink" width="26.702" height="20.551" viewBox="0 0 26.702 20.551">
  <defs>
    <clipPath id="clip-path">
      <rect id="Rectangle_810" data-name="Rectangle 810" width="26.702" height="20.551" fill="#004a8c"/>
    </clipPath>
  </defs>
  <g id="Group_1640" data-name="Group 1640" transform="translate(0 0)" clip-path="url(#clip-path)">
    <path id="Path_4306" data-name="Path 4306" d="M2.619.286,11.9,10.813a2.779,2.779,0,0,0,4.17,0L25.184.469a.977.977,0,0,1,.258-.2A3.136,3.136,0,0,0,24.181,0H3.782A3.152,3.152,0,0,0,2.571.241c.016.016.033.028.048.045" transform="translate(-0.631 0)" fill="#004a8c"/>
    <path id="Path_4307" data-name="Path 4307" d="M26.217,1.957a.97.97,0,0,1-.178.3L16.921,12.6a4.759,4.759,0,0,1-7.14,0L.5,2.075C.484,2.054.471,2.029.454,2.008A3.127,3.127,0,0,0,0,3.631V17.88a3.151,3.151,0,0,0,3.151,3.152h20.4A3.151,3.151,0,0,0,26.7,17.88V3.631a3.129,3.129,0,0,0-.485-1.674" transform="translate(0 -0.48)" fill="#004a8c"/>
  </g>
</svg>
