<svg xmlns="http://www.w3.org/2000/svg" xmlns:xlink="http://www.w3.org/1999/xlink" width="26.702" height="34.579" viewBox="0 0 26.702 34.579">
  <defs>
    <clipPath id="clip-path">
      <rect id="Rectangle_808" data-name="Rectangle 808" width="26.702" height="34.579" transform="translate(0 0)" fill="#004a8c"/>
    </clipPath>
  </defs>
  <g id="location" transform="translate(0 0)">
    <g id="Group_1636" data-name="Group 1636" clip-path="url(#clip-path)">
      <path id="Path_4303" data-name="Path 4303" d="M13.351,8.732a3.978,3.978,0,1,0,3.979,3.979,3.983,3.983,0,0,0-3.979-3.979" fill="#004a8c"/>
      <path id="Path_4304" data-name="Path 4304" d="M13.351,0A13.351,13.351,0,0,0,0,13.351c0,6.287,9.707,17.66,12.567,20.876a1.048,1.048,0,0,0,1.568,0C17,31.011,26.7,19.638,26.7,13.351A13.35,13.35,0,0,0,13.351,0m0,19.311a6.6,6.6,0,1,1,6.6-6.6,6.608,6.608,0,0,1-6.6,6.6" fill="#004a8c"/>
    </g>
  </g>
</svg>
