<svg xmlns="http://www.w3.org/2000/svg" xmlns:xlink="http://www.w3.org/1999/xlink" width="152.366" height="47.7" viewBox="0 0 152.366 47.7">
  <defs>
    <clipPath id="clip-path">
      <rect id="Rectangle_13" data-name="Rectangle 13" width="152.366" height="47.7" fill="#fff"/>
    </clipPath>
  </defs>
  <g id="Logo" transform="translate(0 0)">
    <g id="Group_4" data-name="Group 4" transform="translate(0 0)" clip-path="url(#clip-path)">
      <path id="Path_12" data-name="Path 12" d="M149.031,35.583v-.96h-8.556v4.025h2.139v9.544h-2.139v4.049h8.556v-.919a8.928,8.928,0,0,1,0-15.739" transform="translate(-62.356 -15.369)" fill="#fff"/>
      <path id="Path_13" data-name="Path 13" d="M177.858,34.623h-3.546v2.19a8.9,8.9,0,0,1,0,13.282v2.147h4.277V43.181l6.253,9.061h3.615V49.956Z" transform="translate(-77.376 -15.369)" fill="#fff"/>
      <path id="Path_14" data-name="Path 14" d="M262.938,41.6c0-3.751-2.742-6.946-7.9-6.946H249.1v4.026h4.277v0h1.99c1.813,0,3.527.983,3.527,2.922,0,2.04-1.713,2.9-3.527,2.9h-1.409v.073h-.468V48.55h1.549c5.162,0,7.9-3.169,7.9-6.946" transform="translate(-110.572 -15.384)" fill="#fff"/>
      <path id="Path_15" data-name="Path 15" d="M127.334,41.57c0-3.751-2.742-6.946-7.9-6.946h-5.939v4.045h4.277v-.021h1.99c.1,0,.2.014.3.021h.283v.019a2.978,2.978,0,0,1,2.946,2.882c0,2.04-1.713,2.9-3.527,2.9h-1.99v-.058h-4.277v7.834h4.277V48.517h1.662c5.162,0,7.9-3.169,7.9-6.946" transform="translate(-50.378 -15.369)" fill="#fff"/>
      <path id="Path_16" data-name="Path 16" d="M202.183,41.4V38.647h11.975V34.624H197.907V52.243h12.055V48.192h-7.779V45.445h7.1V41.4Z" transform="translate(-87.85 -15.369)" fill="#fff"/>
      <path id="Path_17" data-name="Path 17" d="M262.159,60.146l-7.72-7.762h-5.572l7.854,7.762" transform="translate(-110.471 -23.253)" fill="#fff"/>
      <path id="Path_18" data-name="Path 18" d="M228.155,41.429V38.681h9.876V34.657H223.879V52.276h12.055V48.226h-7.779V45.479h7.1v-4.05Z" transform="translate(-99.379 -15.384)" fill="#fff"/>
      <path id="Path_19" data-name="Path 19" d="M159.9,51.533A4.909,4.909,0,1,0,155,46.625a4.909,4.909,0,0,0,4.909,4.909" transform="translate(-68.802 -18.517)" fill="#fff"/>
      <path id="Path_20" data-name="Path 20" d="M194.029,78.817H199.7V77.489h-4.2V75.254h3.784V73.926H195.5V71.9h3.994V70.572h-5.462Zm-8.664-4.751V71.83h1.27c.756,0,1.666.116,1.666,1.094,0,1.072-.967,1.142-1.794,1.142ZM183.9,78.817h1.467V75.324h1.072l1.91,3.493h1.77l-2.189-3.645a2.113,2.113,0,0,0,1.91-2.236c0-1.851-1.491-2.364-3.075-2.364H183.9Zm-4.6-8.245h-1.467v5.17a1.852,1.852,0,1,1-3.7,0v-5.17h-1.467v5.217a3.32,3.32,0,0,0,6.637,0Zm-14.393,8.245h1.467V71.9H168.9V70.572h-6.521V71.9h2.527Zm-13.753,0h1.467V72.494h.023l4.076,6.323h1.864V70.572h-1.468V76.7l-.023.023h.023l-.023-.023L153.1,70.572h-1.945Zm-9.91,0h5.671V77.489h-4.2V75.254H146.5V73.926h-3.784V71.9h3.994V70.572h-5.462Zm-8.279,0h1.269l3.331-8.245h-1.584L133.663,76.8l-2.247-6.231h-1.689Zm-12.448-1.327V71.9h1.339c1.793,0,3.1.792,3.1,2.795s-1.5,2.795-3.342,2.795Zm-1.467,1.327h3.074a4.157,4.157,0,0,0,4.367-4.122,3.934,3.934,0,0,0-4.192-4.122H119.05Zm-9.235-3.144,1.293-3.353,1.269,3.353Zm-2.888,3.144h1.642l.745-1.887h3.576l.768,1.887h1.677l-3.552-8.245h-1.269Z" transform="translate(-47.464 -31.326)" fill="#fff"/>
      <path id="Path_21" data-name="Path 21" d="M46.8,29.6A10.438,10.438,0,0,0,27.2,24.588l-.022.038L15.328,43H7.894L31.133,8.646l2.8,4.775a16.7,16.7,0,0,1,5.464.043L32.222,0,0,47.633H17.784l13.47-20.778.489-.765a5.8,5.8,0,1,1,1.913,8.657L31.06,38.6a10.441,10.441,0,0,0,15.736-9" transform="translate(0 0)" fill="#fff"/>
      <path id="Path_22" data-name="Path 22" d="M69.667,68.5H48.305l-2.977,4.592H77.387l-8.5-15.655a10.4,10.4,0,0,1-2.4,5.212Z" transform="translate(-20.121 -25.495)" fill="#fff"/>
    </g>
  </g>
</svg>
