<svg xmlns="http://www.w3.org/2000/svg" xmlns:xlink="http://www.w3.org/1999/xlink" width="26.702" height="24.823" viewBox="0 0 26.702 24.823">
  <defs>
    <clipPath id="clip-path">
      <rect id="Rectangle_809" data-name="Rectangle 809" width="26.702" height="24.823" fill="#004a8c"/>
    </clipPath>
  </defs>
  <g id="phone" transform="translate(0 0)">
    <g id="Group_1638" data-name="Group 1638" transform="translate(0 0)" clip-path="url(#clip-path)">
      <path id="Path_4305" data-name="Path 4305" d="M23.542,16.4c-1.132-.677-2.606-1.435-3.941-.888-1.024.419-1.677,2.022-2.34,2.839a.98.98,0,0,1-1.269.276A17.853,17.853,0,0,1,7.083,11,1.092,1.092,0,0,1,7.222,9.5,6.043,6.043,0,0,0,8.84,6.878a5.745,5.745,0,0,0-.724-3.11C7.579,2.611,6.979.962,5.82.309A3.147,3.147,0,0,0,2.4.816,6.938,6.938,0,0,0,0,6.31,7.791,7.791,0,0,0,.216,8.053,14.4,14.4,0,0,0,1.89,11.908a30.615,30.615,0,0,0,1.745,2.656A26.985,26.985,0,0,0,11.209,21.6a22.9,22.9,0,0,0,4.722,2.246c1.85.613,3.5,1.249,5.5.869A6.661,6.661,0,0,0,26.414,21a3.228,3.228,0,0,0,.231-1.893c-.285-1.3-2.05-2.079-3.1-2.708" transform="translate(0 -0.001)" fill="#004a8c" fill-rule="evenodd"/>
    </g>
  </g>
</svg>
